<?xml version="1.0" encoding="utf-8"?>
<!-- Generator: Adobe Illustrator 19.2.1, SVG Export Plug-In . SVG Version: 6.00 Build 0)  -->
<svg version="1.1" id="Layer_1" xmlns="http://www.w3.org/2000/svg" xmlns:xlink="http://www.w3.org/1999/xlink" x="0px" y="0px"
	 viewBox="0 0 309.6 309.6" style="enable-background:new 0 0 309.6 309.6;" xml:space="preserve">
<style type="text/css">
	.st0{fill:#FFFFFF;}
</style>
<path class="st0" d="M288.1,307.3H21.3c-10.4,0-18.9-8.5-18.9-18.9V21.5c0-10.4,8.5-18.9,18.9-18.9h266.8c10.4,0,18.9,8.5,18.9,18.9
	v266.8C307,298.8,298.5,307.3,288.1,307.3z M21.3,8C13.8,8,7.8,14.1,7.8,21.5v266.8c0,7.5,6.1,13.5,13.5,13.5h266.8
	c7.5,0,13.5-6.1,13.5-13.5V21.5c0-7.5-6.1-13.5-13.5-13.5H21.3z"/>
<rect x="236.6" y="113.4" class="st0" width="32.5" height="50.5"/>
<rect x="236.6" y="60" class="st0" width="32.5" height="50.5"/>
<path class="st0" d="M252.9,24.6c-8.9,0-16.3,7.3-16.3,16.3v16.3h32.5V40.9C269.1,31.9,261.8,24.6,252.9,24.6z"/>
<path class="st0" d="M71.5,75.4l9.8,9.8c1.3,1.3,2.9,0.9,3.5-0.7l3.6-8.6c0.7-1.6-0.2-3-2-3H72.5c0.1-0.5,0.2-1.1,0.2-1.7
	c0-0.6-0.1-1.1-0.2-1.7h13.9c1.8,0,2.7-1.3,2-3l-3.6-8.6c-0.7-1.6-2.3-2-3.5-0.7L71.5,67c-0.6-1-1.4-1.8-2.4-2.4l9.8-9.8
	c1.3-1.3,0.9-2.9-0.7-3.5l-8.6-3.6c-1.6-0.7-3,0.2-3,2v13.9c-0.5-0.1-1.1-0.2-1.7-0.2c-0.6,0-1.1,0.1-1.7,0.2l0-13.9
	c0-1.8-1.3-2.7-3-2l-8.6,3.6c-1.6,0.7-2,2.3-0.7,3.5l3,3c1.3,1.3,3.3,3.3,4.6,4.6l2.2,2.2c-1,0.6-1.8,1.4-2.4,2.4l-9.8-9.8
	c-1.3-1.3-2.9-0.9-3.5,0.7l-3.6,8.6c-0.7,1.6,0.2,3,2,3h13.9c-0.1,0.5-0.2,1.1-0.2,1.7c0,0.6,0.1,1.1,0.2,1.7H43.4
	c-1.8,0-2.7,1.3-2,3l3.6,8.6c0.7,1.6,2.3,2,3.5,0.7l3.8-3.8c1.3-1.3,3.3-3.3,4.6-4.6l1.4-1.4c0.2,0.3,0.4,0.6,0.7,0.9L58.6,80
	l-7.6,7.6c-1.3,1.3-0.9,2.9,0.7,3.5l5.1,2.1l-1.7,12.1h-6.7c-1.5,0-2.7,1.2-2.7,2.7c0,1.5,1.2,2.7,2.7,2.7h5.9L51,135.6h-5.7
	c-1.5,0-2.7,1.2-2.7,2.7c0,1.5,1.2,2.7,2.7,2.7h4.9l-3.1,22.6c-0.2,1.5,0.8,2.8,2.3,3c1.5,0.2,2.8-0.8,3-2.3l3.2-23.3h18.4l3.2,23.3
	c0.2,1.4,1.3,2.3,2.7,2.3c0.1,0,0.2,0,0.4,0c1.5-0.2,2.5-1.6,2.3-3L79.6,141h4.9c1.5,0,2.7-1.2,2.7-2.7c0-1.5-1.2-2.7-2.7-2.7h-5.7
	l-3.4-24.7h5.9c1.5,0,2.7-1.2,2.7-2.7c0-1.5-1.2-2.7-2.7-2.7h-6.7l-1.7-12.1l5.1-2.1c1.6-0.7,2-2.3,0.7-3.5L71.3,80l-0.5-3.6
	C71.1,76.1,71.3,75.7,71.5,75.4z M73.4,135.6H56.5l3.4-24.7H70L73.4,135.6z M60.6,105.4L62,94.8c0.8-0.3,1.2-1,1.2-2.1v-1.4
	c0-1.5,0-3.9,0-5.6l0.9-6.7c0.3,0,0.5,0,0.8,0s0.5,0,0.8,0l0.9,6.7c0,1.8,0,4.1,0,5.6l0,1.4c0,1.1,0.5,1.8,1.2,2.1l1.4,10.6H60.6z"
	/>
<path class="st0" d="M218.3,115.8l-30.4-34.2h-58.6L99,115.8c-1.3,1.4-3,2.3-5,2.4c-0.1,0-0.3,0-0.4,0v39.2c0,3.6,2.9,6.5,6.5,6.5
	h117.1c3.6,0,6.5-2.9,6.5-6.5v-39.2C221.7,118.2,219.7,117.3,218.3,115.8z M142.4,93.9c0-1.8,1.5-3.2,3.2-3.2h26
	c1.8,0,3.2,1.5,3.2,3.2v6.5c0,1.8-1.5,3.2-3.2,3.2h-26c-1.8,0-3.2-1.5-3.2-3.2V93.9z M183.1,159.6h-48.8v-29.3
	c0-1.8,1.5-3.3,3.2-3.3h42.3c1.8,0,3.3,1.5,3.3,3.3V159.6z"/>
<path class="st0" d="M45.1,179.2h10.4c3.1,0,5.5,0.7,7.2,2.1c1.7,1.4,2.5,3.5,2.5,6.1c0,2-0.4,3.7-1.3,4.9s-2.1,2-3.8,2.3
	c2,0.5,3.6,1.5,4.7,3c1.1,1.5,1.7,3.4,1.7,5.7c0,3-0.9,5.3-2.7,6.9c-1.8,1.6-4.4,2.4-7.8,2.4H45.1V179.2z M49.1,182.9v10h6
	c2,0,3.5-0.4,4.4-1.2c1-0.8,1.5-2.1,1.5-3.8c0-1.7-0.5-2.9-1.5-3.8c-1-0.8-2.5-1.3-4.4-1.3H49.1z M49.1,196.6v12.2h6.5
	c2.2,0,3.8-0.5,4.9-1.5c1-1,1.6-2.5,1.6-4.6c0-2.1-0.5-3.6-1.6-4.6c-1-1-2.7-1.5-4.9-1.5H49.1z"/>
<path class="st0" d="M77,179.2h4.1v20.3c0,3.6,0.6,6.1,1.8,7.7c1.2,1.6,3.1,2.4,5.7,2.4c2.6,0,4.5-0.8,5.6-2.4
	c1.2-1.6,1.7-4.1,1.7-7.7v-20.3h4.1V200c0,4.3-1,7.6-2.9,9.8c-1.9,2.2-4.8,3.3-8.6,3.3c-3.8,0-6.7-1.1-8.6-3.3
	c-1.9-2.2-2.9-5.5-2.9-9.8V179.2z"/>
<path class="st0" d="M112,179.2h4.1v33.3H112V179.2z"/>
<path class="st0" d="M128.4,179.2h4.1v29.5h14.6v3.8h-18.7V179.2z"/>
<path class="st0" d="M156.2,179.2h8.3c5.8,0,10.1,1.3,12.8,4c2.7,2.7,4.1,6.9,4.1,12.6c0,5.7-1.4,10-4.1,12.7s-7,4-12.8,4h-8.3
	V179.2z M160.3,182.9v25.9h4.9c4.1,0,7.2-1,9.1-3.1s2.9-5.4,2.9-9.9c0-4.5-1-7.7-2.9-9.8c-1.9-2.1-5-3.1-9.1-3.1H160.3z"/>
<path class="st0" d="M192.4,179.2h4.1v33.3h-4.1V179.2z"/>
<path class="st0" d="M208.8,179.2h5.5l13.3,27.9v-27.9h3.9v33.3H226l-13.3-27.9v27.9h-3.9V179.2z"/>
<path class="st0" d="M264.5,207.8v-9h-6.6v-3.7h10.7v14.3c-1.6,1.2-3.3,2.2-5.2,2.8c-1.9,0.6-3.9,0.9-6.1,0.9c-4.7,0-8.4-1.5-11-4.6
	c-2.6-3-4-7.3-4-12.7c0-5.4,1.3-9.7,4-12.7c2.6-3,6.3-4.6,11-4.6c2,0,3.8,0.3,5.6,0.8c1.8,0.5,3.4,1.3,4.9,2.4v4.8
	c-1.5-1.4-3.1-2.5-4.8-3.2s-3.5-1.1-5.3-1.1c-3.7,0-6.4,1.1-8.3,3.4c-1.8,2.3-2.8,5.7-2.8,10.2c0,4.5,0.9,7.9,2.8,10.2
	c1.8,2.3,4.6,3.4,8.3,3.4c1.4,0,2.7-0.1,3.9-0.4C262.6,208.8,263.6,208.4,264.5,207.8z"/>
<path class="st0" d="M58.5,224.9v4.4c-1.1-0.5-2.3-0.9-3.3-1.2c-1.1-0.3-2.1-0.4-3.1-0.4c-1.3,0-2.2,0.2-2.8,0.5
	c-0.6,0.4-0.9,0.9-0.9,1.6c0,0.6,0.2,1,0.6,1.3c0.4,0.3,1.2,0.6,2.3,0.8l2.3,0.5c2.3,0.5,4,1.2,4.9,2.1c1,0.9,1.5,2.3,1.5,4
	c0,2.3-0.7,4-2,5.1c-1.4,1.1-3.4,1.7-6.2,1.7c-1.3,0-2.6-0.1-4-0.4s-2.7-0.6-4-1.1v-4.5c1.3,0.7,2.6,1.2,3.9,1.6
	c1.2,0.4,2.4,0.5,3.6,0.5c1.2,0,2.1-0.2,2.7-0.6c0.6-0.4,0.9-0.9,0.9-1.7c0-0.7-0.2-1.2-0.6-1.5c-0.4-0.4-1.3-0.7-2.5-0.9l-2.1-0.5
	c-2.1-0.4-3.6-1.2-4.6-2.1c-1-1-1.4-2.3-1.4-4c0-2.1,0.7-3.7,2-4.8c1.3-1.1,3.3-1.7,5.8-1.7c1.1,0,2.3,0.1,3.5,0.3
	C55.9,224.3,57.2,224.6,58.5,224.9z"/>
<path class="st0" d="M65.1,224.3h5.4v12.5c0,1.7,0.3,3,0.8,3.7c0.6,0.7,1.5,1.1,2.8,1.1c1.3,0,2.2-0.4,2.8-1.1
	c0.6-0.7,0.8-2,0.8-3.7v-12.5H83v12.5c0,2.9-0.7,5.1-2.2,6.6s-3.7,2.2-6.8,2.2c-3,0-5.3-0.7-6.8-2.2s-2.2-3.6-2.2-6.6V224.3z"/>
<path class="st0" d="M103.6,224.9v4.4c-1.1-0.5-2.3-0.9-3.3-1.2c-1.1-0.3-2.1-0.4-3.1-0.4c-1.3,0-2.2,0.2-2.8,0.5s-0.9,0.9-0.9,1.6
	c0,0.6,0.2,1,0.6,1.3c0.4,0.3,1.2,0.6,2.3,0.8l2.3,0.5c2.3,0.5,4,1.2,4.9,2.1c1,0.9,1.5,2.3,1.5,4c0,2.3-0.7,4-2,5.1
	c-1.4,1.1-3.4,1.7-6.2,1.7c-1.3,0-2.6-0.1-4-0.4s-2.7-0.6-4-1.1v-4.5c1.3,0.7,2.6,1.2,3.9,1.6c1.2,0.4,2.4,0.5,3.6,0.5
	c1.2,0,2.1-0.2,2.7-0.6s0.9-0.9,0.9-1.7c0-0.7-0.2-1.2-0.6-1.5c-0.4-0.4-1.3-0.7-2.5-0.9l-2.1-0.5c-2.1-0.4-3.6-1.2-4.6-2.1
	c-1-1-1.4-2.3-1.4-4c0-2.1,0.7-3.7,2-4.8c1.3-1.1,3.3-1.7,5.8-1.7c1.1,0,2.3,0.1,3.5,0.3C101,224.3,102.3,224.6,103.6,224.9z"/>
<path class="st0" d="M108,224.3h19.2v4.1h-6.9v16.8h-5.4v-16.8H108V224.3z"/>
<path class="st0" d="M142.1,241.3h-8.4l-1.3,3.8H127l7.7-20.8h6.4l7.7,20.8h-5.4L142.1,241.3z M135,237.4h5.7l-2.8-8.3L135,237.4z"
	/>
<path class="st0" d="M152.8,224.3h5.4v20.8h-5.4V224.3z"/>
<path class="st0" d="M164.4,224.3h6l7.6,14.3v-14.3h5.1v20.8h-6l-7.6-14.3v14.3h-5.1V224.3z"/>
<path class="st0" d="M202.2,241.3h-8.4l-1.3,3.8h-5.4l7.7-20.8h6.4l7.7,20.8h-5.4L202.2,241.3z M195.2,237.4h5.7l-2.8-8.3
	L195.2,237.4z"/>
<path class="st0" d="M226.5,234c1.2,0.3,2,1,2.7,1.9s0.9,2,0.9,3.3c0,2-0.7,3.5-2,4.5s-3.4,1.5-6.2,1.5H213v-20.8h8.1
	c2.9,0,5,0.4,6.3,1.3c1.3,0.9,1.9,2.3,1.9,4.2c0,1-0.2,1.9-0.7,2.6C228.1,233.1,227.4,233.6,226.5,234z M221.3,232.3
	c0.8,0,1.5-0.2,1.9-0.6c0.4-0.4,0.7-0.9,0.7-1.6c0-0.7-0.2-1.3-0.7-1.6c-0.4-0.4-1.1-0.6-1.9-0.6h-3v4.4H221.3z M221.5,241.5
	c1.1,0,1.9-0.2,2.4-0.7c0.5-0.5,0.8-1.1,0.8-2.1c0-0.9-0.3-1.6-0.8-2c-0.5-0.5-1.4-0.7-2.4-0.7h-3.2v5.5H221.5z"/>
<path class="st0" d="M235.6,224.3h5.4V241h9.4v4.1h-14.8V224.3z"/>
<path class="st0" d="M254.7,224.3h14.5v4.1h-9.1v3.9h8.6v4.1h-8.6v4.8h9.4v4.1h-14.8V224.3z"/>
<path class="st0" d="M60.1,258.1v3.6c-1-1.1-2.1-1.9-3.3-2.4c-1.2-0.5-2.4-0.8-3.7-0.8c-2.6,0-4.5,0.9-5.9,2.6
	c-1.4,1.7-2.1,4.3-2.1,7.6c0,3.3,0.7,5.8,2.1,7.6c1.4,1.7,3.3,2.6,5.9,2.6c1.3,0,2.5-0.3,3.7-0.8c1.2-0.5,2.3-1.3,3.3-2.4v3.5
	c-1.1,0.8-2.2,1.4-3.4,1.8s-2.5,0.6-3.8,0.6c-3.4,0-6.1-1.2-8.1-3.5c-2-2.3-2.9-5.5-2.9-9.5c0-4,1-7.2,2.9-9.5
	c2-2.3,4.6-3.5,8.1-3.5c1.3,0,2.6,0.2,3.8,0.6C58,256.8,59.1,257.4,60.1,258.1z"/>
<path class="st0" d="M74.8,255.8c3.2,0,5.7,1.2,7.6,3.5c1.9,2.4,2.8,5.5,2.8,9.5c0,3.9-0.9,7.1-2.8,9.4c-1.9,2.4-4.4,3.5-7.6,3.5
	c-3.2,0-5.7-1.2-7.6-3.5c-1.9-2.3-2.8-5.5-2.8-9.4c0-4,0.9-7.1,2.8-9.5C69.1,256.9,71.6,255.8,74.8,255.8z M74.8,258.5
	c-2.2,0-4,0.9-5.3,2.7c-1.3,1.8-2,4.3-2,7.5c0,3.1,0.7,5.6,2,7.5c1.3,1.8,3.1,2.7,5.3,2.7c2.2,0,4-0.9,5.3-2.7
	c1.3-1.8,1.9-4.3,1.9-7.5c0-3.2-0.6-5.7-1.9-7.5C78.7,259.4,77,258.5,74.8,258.5z"/>
<path class="st0" d="M91.1,256.2h4.5l5.7,17l5.8-17h4.5v25h-3v-22l-5.8,17.1h-3L94,259.3v22h-2.9V256.2z"/>
<path class="st0" d="M118.7,256.2h4.5l5.7,17l5.8-17h4.5v25h-3v-22l-5.8,17.1h-3l-5.8-17.1v22h-2.9V256.2z"/>
<path class="st0" d="M146.2,256.2h3.1v15.2c0,2.7,0.4,4.6,1.3,5.8c0.9,1.2,2.3,1.8,4.2,1.8c2,0,3.4-0.6,4.2-1.8
	c0.9-1.2,1.3-3.1,1.3-5.8v-15.2h3.1v15.6c0,3.3-0.7,5.7-2.2,7.4s-3.6,2.5-6.4,2.5c-2.8,0-5-0.8-6.4-2.5c-1.5-1.7-2.2-4.1-2.2-7.4
	V256.2z"/>
<path class="st0" d="M170.3,256.2h4.1l10,20.9v-20.9h2.9v25h-4.1l-10-20.9v20.9h-2.9V256.2z"/>
<path class="st0" d="M194.4,256.2h3v25h-3V256.2z"/>
<path class="st0" d="M201.9,256.2h19v2.8h-8v22.2h-3v-22.2h-8V256.2z"/>
<path class="st0" d="M225.5,256.2h3v25h-3V256.2z"/>
<path class="st0" d="M235.6,256.2h14.2v2.8h-11.2v7.4h10.7v2.8h-10.7v9.1h11.5v2.8h-14.5V256.2z"/>
<path class="st0" d="M269.6,257v3.3c-1.1-0.6-2.2-1.1-3.3-1.4c-1-0.3-2-0.5-3-0.5c-1.7,0-2.9,0.4-3.8,1.1s-1.3,1.7-1.3,3
	c0,1.1,0.3,1.9,0.9,2.5c0.6,0.6,1.7,1,3.4,1.4l1.8,0.4c2.3,0.5,4,1.3,5,2.5c1.1,1.2,1.6,2.8,1.6,4.9c0,2.4-0.7,4.3-2.2,5.5
	c-1.5,1.3-3.6,1.9-6.4,1.9c-1.1,0-2.2-0.1-3.4-0.4c-1.2-0.3-2.4-0.7-3.7-1.2v-3.5c1.2,0.8,2.5,1.4,3.6,1.7s2.4,0.6,3.5,0.6
	c1.7,0,3.1-0.4,4-1.1s1.4-1.8,1.4-3.2c0-1.2-0.3-2.2-1-2.9c-0.7-0.7-1.8-1.2-3.3-1.6l-1.8-0.4c-2.3-0.5-3.9-1.3-4.9-2.4
	c-1-1.1-1.5-2.6-1.5-4.5c0-2.2,0.7-4,2.1-5.2c1.4-1.3,3.3-1.9,5.8-1.9c1.1,0,2.1,0.1,3.2,0.3C267.3,256.3,268.5,256.6,269.6,257z"/>
<path class="st0" d="M227.3,115.1c-1,0.9-2.3,1.3-3.7,1.3c-1.5,0-3-0.6-4-1.8l-30.9-34.8h-60.2l-30.9,34.8c-1,1.1-2.3,1.7-3.7,1.8
	h-0.2c-1.4,0-2.6-0.5-3.7-1.4c-2.2-2-2.4-5.4-0.5-7.6l32.5-36.6c1-1.2,2.5-1.8,4.1-1.8h65c1.6,0,3,0.7,4.1,1.8l32.5,36.6
	C229.8,109.6,229.6,113.1,227.3,115.1z"/>
</svg>
