<svg id="Layer_1" data-name="Layer 1" xmlns="http://www.w3.org/2000/svg" viewBox="0 0 304.6 304.7"><defs><style>.cls-1{fill:#4e6829;}</style></defs><title>logo_ondark</title><path class="cls-1" d="M288.1,307.3H21.3A19,19,0,0,1,2.4,288.4V21.5A19,19,0,0,1,21.3,2.6H288.1A19,19,0,0,1,307,21.5V288.3A19,19,0,0,1,288.1,307.3ZM21.3,8A13.51,13.51,0,0,0,7.8,21.5V288.3a13.51,13.51,0,0,0,13.5,13.5H288.1a13.51,13.51,0,0,0,13.5-13.5V21.5A13.51,13.51,0,0,0,288.1,8H21.3Z" transform="translate(-2.4 -2.6)"/><rect class="cls-1" x="234.2" y="110.8" width="32.5" height="50.5"/><rect class="cls-1" x="234.2" y="57.4" width="32.5" height="50.5"/><path class="cls-1" d="M252.9,24.6a16.37,16.37,0,0,0-16.3,16.3V57.2h32.5V40.9A16.28,16.28,0,0,0,252.9,24.6Z" transform="translate(-2.4 -2.6)"/><path class="cls-1" d="M71.5,75.4l9.8,9.8a2,2,0,0,0,3.5-.7l3.6-8.6a2,2,0,0,0-2-3H72.5a8.81,8.81,0,0,0,.2-1.7,9.85,9.85,0,0,0-.2-1.7H86.4a2,2,0,0,0,2-3l-3.6-8.6c-0.7-1.6-2.3-2-3.5-.7L71.5,67a6.89,6.89,0,0,0-2.4-2.4l9.8-9.8a2,2,0,0,0-.7-3.5l-8.6-3.6a2,2,0,0,0-3,2V63.6a8.81,8.81,0,0,0-1.7-.2,9.85,9.85,0,0,0-1.7.2V49.7a2,2,0,0,0-3-2l-8.6,3.6c-1.6.7-2,2.3-.7,3.5l3,3,4.6,4.6,2.2,2.2A6.89,6.89,0,0,0,58.3,67l-9.8-9.8a2,2,0,0,0-3.5.7l-3.6,8.6a2,2,0,0,0,2,3H57.3a8.81,8.81,0,0,0-.2,1.7,9.85,9.85,0,0,0,.2,1.7H43.4a2,2,0,0,0-2,3L45,84.5c0.7,1.6,2.3,2,3.5.7l3.8-3.8,4.6-4.6,1.4-1.4a5.5,5.5,0,0,0,.7.9L58.6,80,51,87.6a2,2,0,0,0,.7,3.5l5.1,2.1-1.7,12.1H48.4a2.7,2.7,0,1,0,0,5.4h5.9L51,135.6H45.3a2.7,2.7,0,1,0,0,5.4h4.9l-3.1,22.6a2.67,2.67,0,1,0,5.3.7L55.6,141H74l3.2,23.3a2.62,2.62,0,0,0,2.7,2.3h0.4a2.68,2.68,0,0,0,2.3-3l-3-22.6h4.9a2.7,2.7,0,0,0,0-5.4H78.8l-3.4-24.7h5.9a2.7,2.7,0,1,0,0-5.4H74.6L72.9,93.4,78,91.3c1.6-.7,2-2.3.7-3.5L71.3,80l-0.5-3.6A6.07,6.07,0,0,0,71.5,75.4Zm1.9,60.2H56.5l3.4-24.7H70ZM60.6,105.4L62,94.8a2,2,0,0,0,1.2-2.1v-7L64.1,79h1.6l0.9,6.7v7a2.11,2.11,0,0,0,1.2,2.1l1.4,10.6H60.6Z" transform="translate(-2.4 -2.6)"/><path class="cls-1" d="M218.3,115.8L187.9,81.6H129.3L99,115.8a7.23,7.23,0,0,1-5,2.4H93.6v39.2a6.49,6.49,0,0,0,6.5,6.5H217.2a6.49,6.49,0,0,0,6.5-6.5V118.2A7.51,7.51,0,0,1,218.3,115.8ZM142.4,93.9a3.22,3.22,0,0,1,3.2-3.2h26a3.22,3.22,0,0,1,3.2,3.2v6.5a3.22,3.22,0,0,1-3.2,3.2h-26a3.22,3.22,0,0,1-3.2-3.2V93.9Zm40.7,65.7H134.3V130.3a3.31,3.31,0,0,1,3.2-3.3h42.3a3.33,3.33,0,0,1,3.3,3.3v29.3Z" transform="translate(-2.4 -2.6)"/><path class="cls-1" d="M45.1,179.2H55.5q4.65,0,7.2,2.1a7.51,7.51,0,0,1,2.5,6.1,8.12,8.12,0,0,1-1.3,4.9,5.77,5.77,0,0,1-3.8,2.3,8.05,8.05,0,0,1,4.7,3,9.41,9.41,0,0,1,1.7,5.7,8.75,8.75,0,0,1-2.7,6.9q-2.7,2.4-7.8,2.4H45.1V179.2Zm4,3.7v10h6a6.61,6.61,0,0,0,4.4-1.2,4.62,4.62,0,0,0,1.5-3.8,4.76,4.76,0,0,0-1.5-3.8,7,7,0,0,0-4.4-1.3h-6v0.1Zm0,13.7v12.2h6.5a7,7,0,0,0,4.9-1.5,6.23,6.23,0,0,0,1.6-4.6c0-2.1-.5-3.6-1.6-4.6s-2.7-1.5-4.9-1.5H49.1Z" transform="translate(-2.4 -2.6)"/><path class="cls-1" d="M77,179.2h4.1v20.3c0,3.6.6,6.1,1.8,7.7s3.1,2.4,5.7,2.4,4.5-.8,5.6-2.4,1.7-4.1,1.7-7.7V179.2H100V200c0,4.3-1,7.6-2.9,9.8s-4.8,3.3-8.6,3.3-6.7-1.1-8.6-3.3S77,204.3,77,200V179.2Z" transform="translate(-2.4 -2.6)"/><path class="cls-1" d="M112,179.2h4.1v33.3H112V179.2Z" transform="translate(-2.4 -2.6)"/><path class="cls-1" d="M128.4,179.2h4.1v29.5h14.6v3.8H128.4V179.2h0Z" transform="translate(-2.4 -2.6)"/><path class="cls-1" d="M156.2,179.2h8.3c5.8,0,10.1,1.3,12.8,4s4.1,6.9,4.1,12.6-1.4,10-4.1,12.7-7,4-12.8,4h-8.3V179.2Zm4.1,3.7v25.9h4.9c4.1,0,7.2-1,9.1-3.1s2.9-5.4,2.9-9.9-1-7.7-2.9-9.8-5-3.1-9.1-3.1h-4.9Z" transform="translate(-2.4 -2.6)"/><path class="cls-1" d="M192.4,179.2h4.1v33.3h-4.1V179.2Z" transform="translate(-2.4 -2.6)"/><path class="cls-1" d="M208.8,179.2h5.5l13.3,27.9V179.2h3.9v33.3H226l-13.3-27.9v27.9h-3.9V179.2Z" transform="translate(-2.4 -2.6)"/><path class="cls-1" d="M264.5,207.8v-9h-6.6v-3.7h10.7v14.3a17.47,17.47,0,0,1-5.2,2.8,20,20,0,0,1-6.1.9c-4.7,0-8.4-1.5-11-4.6s-4-7.3-4-12.7,1.3-9.7,4-12.7,6.3-4.6,11-4.6a20.48,20.48,0,0,1,5.6.8,14.92,14.92,0,0,1,4.9,2.4v4.8a16.12,16.12,0,0,0-4.8-3.2,14,14,0,0,0-5.3-1.1c-3.7,0-6.4,1.1-8.3,3.4s-2.8,5.7-2.8,10.2,0.9,7.9,2.8,10.2,4.6,3.4,8.3,3.4a16.11,16.11,0,0,0,3.9-.4A8.13,8.13,0,0,0,264.5,207.8Z" transform="translate(-2.4 -2.6)"/><path class="cls-1" d="M58.5,224.9v4.4a26.72,26.72,0,0,0-3.3-1.2,11.48,11.48,0,0,0-3.1-.4,6.35,6.35,0,0,0-2.8.5,1.8,1.8,0,0,0-.9,1.6,1.49,1.49,0,0,0,.6,1.3,5.93,5.93,0,0,0,2.3.8l2.3,0.5a10.23,10.23,0,0,1,4.9,2.1,5.2,5.2,0,0,1,1.5,4,6.34,6.34,0,0,1-2,5.1,9.76,9.76,0,0,1-6.2,1.7,18.71,18.71,0,0,1-4-.4,26.19,26.19,0,0,1-4-1.1v-4.5a21.39,21.39,0,0,0,3.9,1.6,11.19,11.19,0,0,0,3.6.5,4.91,4.91,0,0,0,2.7-.6,1.85,1.85,0,0,0,.9-1.7,1.75,1.75,0,0,0-.6-1.5,5,5,0,0,0-2.5-.9l-2.1-.5a9.4,9.4,0,0,1-4.6-2.1,5.3,5.3,0,0,1-1.4-4,6,6,0,0,1,2-4.8,8.91,8.91,0,0,1,5.8-1.7,21.59,21.59,0,0,1,3.5.3A21.36,21.36,0,0,0,58.5,224.9Z" transform="translate(-2.4 -2.6)"/><path class="cls-1" d="M65.1,224.3h5.4v12.5a6.76,6.76,0,0,0,.8,3.7,4.11,4.11,0,0,0,5.6,0c0.6-.7.8-2,0.8-3.7V224.3H83v12.5c0,2.9-.7,5.1-2.2,6.6s-3.7,2.2-6.8,2.2-5.3-.7-6.8-2.2-2.2-3.6-2.2-6.6V224.3h0.1Z" transform="translate(-2.4 -2.6)"/><path class="cls-1" d="M103.6,224.9v4.4a26.72,26.72,0,0,0-3.3-1.2,11.48,11.48,0,0,0-3.1-.4,6.35,6.35,0,0,0-2.8.5,1.7,1.7,0,0,0-.9,1.6,1.49,1.49,0,0,0,.6,1.3,5.93,5.93,0,0,0,2.3.8l2.3,0.5a10.23,10.23,0,0,1,4.9,2.1,5.2,5.2,0,0,1,1.5,4,6.34,6.34,0,0,1-2,5.1,9.76,9.76,0,0,1-6.2,1.7,18.71,18.71,0,0,1-4-.4,26.19,26.19,0,0,1-4-1.1v-4.5a21.39,21.39,0,0,0,3.9,1.6,11.19,11.19,0,0,0,3.6.5,4.91,4.91,0,0,0,2.7-.6,1.85,1.85,0,0,0,.9-1.7,1.75,1.75,0,0,0-.6-1.5,5,5,0,0,0-2.5-.9l-2.1-.5a9.4,9.4,0,0,1-4.6-2.1,5.3,5.3,0,0,1-1.4-4,6,6,0,0,1,2-4.8,8.91,8.91,0,0,1,5.8-1.7,21.59,21.59,0,0,1,3.5.3A21.36,21.36,0,0,0,103.6,224.9Z" transform="translate(-2.4 -2.6)"/><path class="cls-1" d="M108,224.3h19.2v4.1h-6.9v16.8h-5.4V228.4H108v-4.1Z" transform="translate(-2.4 -2.6)"/><path class="cls-1" d="M142.1,241.3h-8.4l-1.3,3.8H127l7.7-20.8h6.4l7.7,20.8h-5.4Zm-7.1-3.9h5.7l-2.8-8.3Z" transform="translate(-2.4 -2.6)"/><path class="cls-1" d="M152.8,224.3h5.4v20.8h-5.4V224.3Z" transform="translate(-2.4 -2.6)"/><path class="cls-1" d="M164.4,224.3h6l7.6,14.3V224.3h5.1v20.8h-6l-7.6-14.3v14.3h-5.1V224.3Z" transform="translate(-2.4 -2.6)"/><path class="cls-1" d="M202.2,241.3h-8.4l-1.3,3.8h-5.4l7.7-20.8h6.4l7.7,20.8h-5.4Zm-7-3.9h5.7l-2.8-8.3Z" transform="translate(-2.4 -2.6)"/><path class="cls-1" d="M226.5,234a4.81,4.81,0,0,1,2.7,1.9,5.13,5.13,0,0,1,.9,3.3,5.35,5.35,0,0,1-2,4.5c-1.3,1-3.4,1.5-6.2,1.5H213V224.4h8.1c2.9,0,5,.4,6.3,1.3a4.72,4.72,0,0,1,1.9,4.2,4.41,4.41,0,0,1-.7,2.6A5.67,5.67,0,0,1,226.5,234Zm-5.2-1.7a2.71,2.71,0,0,0,1.9-.6,2.18,2.18,0,0,0,.7-1.6,1.75,1.75,0,0,0-.7-1.6,2.71,2.71,0,0,0-1.9-.6h-3v4.4h3Zm0.2,9.2a3.29,3.29,0,0,0,2.4-.7,2.71,2.71,0,0,0,.8-2.1,2.48,2.48,0,0,0-.8-2,3.44,3.44,0,0,0-2.4-.7h-3.2v5.5h3.2Z" transform="translate(-2.4 -2.6)"/><path class="cls-1" d="M235.6,224.3H241V241h9.4v4.1H235.6V224.3h0Z" transform="translate(-2.4 -2.6)"/><path class="cls-1" d="M254.7,224.3h14.5v4.1h-9.1v3.9h8.6v4.1h-8.6v4.8h9.4v4.1H254.7v-21Z" transform="translate(-2.4 -2.6)"/><path class="cls-1" d="M60.1,258.1v3.6a9.31,9.31,0,0,0-3.3-2.4,9.46,9.46,0,0,0-3.7-.8,7.16,7.16,0,0,0-5.9,2.6c-1.4,1.7-2.1,4.3-2.1,7.6s0.7,5.8,2.1,7.6a7.16,7.16,0,0,0,5.9,2.6,9.46,9.46,0,0,0,3.7-.8,9.31,9.31,0,0,0,3.3-2.4v3.5a12.39,12.39,0,0,1-3.4,1.8,12.09,12.09,0,0,1-3.8.6,10.22,10.22,0,0,1-8.1-3.5c-2-2.3-2.9-5.5-2.9-9.5s1-7.2,2.9-9.5a10.08,10.08,0,0,1,8.1-3.5,12.09,12.09,0,0,1,3.8.6A21.64,21.64,0,0,1,60.1,258.1Z" transform="translate(-2.4 -2.6)"/><path class="cls-1" d="M74.8,255.8a9.35,9.35,0,0,1,7.6,3.5c1.9,2.4,2.8,5.5,2.8,9.5s-0.9,7.1-2.8,9.4a9.08,9.08,0,0,1-7.6,3.5,9.35,9.35,0,0,1-7.6-3.5c-1.9-2.3-2.8-5.5-2.8-9.4s0.9-7.1,2.8-9.5A9.08,9.08,0,0,1,74.8,255.8Zm0,2.7a6.24,6.24,0,0,0-5.3,2.7,12.61,12.61,0,0,0-2,7.5,13,13,0,0,0,2,7.5,6.55,6.55,0,0,0,10.6,0c1.3-1.8,1.9-4.3,1.9-7.5s-0.6-5.7-1.9-7.5A6.36,6.36,0,0,0,74.8,258.5Z" transform="translate(-2.4 -2.6)"/><path class="cls-1" d="M91.1,256.2h4.5l5.7,17,5.8-17h4.5v25h-3v-22l-5.8,17.1h-3l-5.8-17v22H91.1V256.2Z" transform="translate(-2.4 -2.6)"/><path class="cls-1" d="M118.7,256.2h4.5l5.7,17,5.8-17h4.5v25h-3v-22l-5.8,17.1h-3l-5.8-17.1v22h-2.9v-25Z" transform="translate(-2.4 -2.6)"/><path class="cls-1" d="M146.2,256.2h3.1v15.2c0,2.7.4,4.6,1.3,5.8a4.91,4.91,0,0,0,4.2,1.8q3,0,4.2-1.8c0.9-1.2,1.3-3.1,1.3-5.8V256.2h3.1v15.6c0,3.3-.7,5.7-2.2,7.4s-3.6,2.5-6.4,2.5-5-.8-6.4-2.5-2.2-4.1-2.2-7.4V256.2h0Z" transform="translate(-2.4 -2.6)"/><path class="cls-1" d="M170.3,256.2h4.1l10,20.9V256.2h2.9v25h-4.1l-10-20.9v20.9h-2.9v-25Z" transform="translate(-2.4 -2.6)"/><path class="cls-1" d="M194.4,256.2h3v25h-3v-25Z" transform="translate(-2.4 -2.6)"/><path class="cls-1" d="M201.9,256.2h19V259h-8v22.2h-3V259h-8v-2.8Z" transform="translate(-2.4 -2.6)"/><path class="cls-1" d="M225.5,256.2h3v25h-3v-25Z" transform="translate(-2.4 -2.6)"/><path class="cls-1" d="M235.6,256.2h14.2V259H238.6v7.4h10.7v2.8H238.6v9.1h11.5v2.8H235.6V256.2Z" transform="translate(-2.4 -2.6)"/><path class="cls-1" d="M269.6,257v3.3a15.55,15.55,0,0,0-3.3-1.4,10.47,10.47,0,0,0-3-.5,5.93,5.93,0,0,0-3.8,1.1,3.54,3.54,0,0,0-1.3,3,3.33,3.33,0,0,0,.9,2.5,7.31,7.31,0,0,0,3.4,1.4l1.8,0.4a8.75,8.75,0,0,1,5,2.5,6.9,6.9,0,0,1,1.6,4.9c0,2.4-.7,4.3-2.2,5.5s-3.6,1.9-6.4,1.9a13.69,13.69,0,0,1-3.4-.4,31.64,31.64,0,0,1-3.7-1.2v-3.5a12.94,12.94,0,0,0,3.6,1.7,14.27,14.27,0,0,0,3.5.6,6.56,6.56,0,0,0,4-1.1,3.88,3.88,0,0,0,1.4-3.2,4,4,0,0,0-1-2.9,7.26,7.26,0,0,0-3.3-1.6l-1.8-.4a9,9,0,0,1-4.9-2.4,6.44,6.44,0,0,1-1.5-4.5,6.56,6.56,0,0,1,2.1-5.2,8.12,8.12,0,0,1,5.8-1.9,17.33,17.33,0,0,1,3.2.3C267.3,256.3,268.5,256.6,269.6,257Z" transform="translate(-2.4 -2.6)"/><path class="cls-1" d="M227.3,115.1a5.41,5.41,0,0,1-3.7,1.3,5.18,5.18,0,0,1-4-1.8L188.7,79.8H128.5L97.6,114.6a5.45,5.45,0,0,1-3.7,1.8H93.7A5.68,5.68,0,0,1,90,115a5.48,5.48,0,0,1-.5-7.6L122,70.8a5.24,5.24,0,0,1,4.1-1.8h65a5.76,5.76,0,0,1,4.1,1.8l32.5,36.6A5.33,5.33,0,0,1,227.3,115.1Z" transform="translate(-2.4 -2.6)"/></svg>