<svg id="Layer_1" data-name="Layer 1" xmlns="http://www.w3.org/2000/svg" viewBox="0 0 304.6 193.1"><defs><style>.cls-1{fill:#4e6829;}</style></defs><title>symbol_onlight</title><path class="cls-1" d="M49.21,101.12L65.09,117a3.24,3.24,0,0,0,5.67-1.13l5.83-13.93a3.24,3.24,0,0,0-3.24-4.86H50.83a14.27,14.27,0,0,0,.32-2.75,16,16,0,0,0-.32-2.75H73.35a3.24,3.24,0,0,0,3.24-4.86L70.76,72.78c-1.13-2.59-3.73-3.24-5.67-1.13L49.21,87.52a11.16,11.16,0,0,0-3.89-3.89L61.2,67.75a3.24,3.24,0,0,0-1.13-5.67L46.14,56.25a3.24,3.24,0,0,0-4.86,3.24V82a14.27,14.27,0,0,0-2.75-.32,16,16,0,0,0-2.75.32V59.49a3.24,3.24,0,0,0-4.86-3.24L17,62.08c-2.59,1.13-3.24,3.73-1.13,5.67l4.86,4.86,7.45,7.45,3.56,3.56a11.16,11.16,0,0,0-3.89,3.89L12,71.64a3.24,3.24,0,0,0-5.67,1.13L0.45,86.71a3.24,3.24,0,0,0,3.24,4.86H26.21a14.27,14.27,0,0,0-.32,2.75,16,16,0,0,0,.32,2.75H3.69a3.24,3.24,0,0,0-3.24,4.86l5.83,13.93C7.42,118.46,10,119.11,12,117l6.16-6.16,7.45-7.45,2.27-2.27A8.91,8.91,0,0,0,29,102.58l-0.65,6L16,120.89a3.24,3.24,0,0,0,1.13,5.67L25.4,130l-2.75,19.6H11.79a4.37,4.37,0,1,0,0,8.75h9.56L16,198.65H6.77a4.37,4.37,0,0,0,0,8.75h8L9.69,244a4.33,4.33,0,1,0,8.59,1.13l5.18-37.74H53.26l5.18,37.74a4.24,4.24,0,0,0,4.37,3.73h0.65A4.34,4.34,0,0,0,67.2,244l-4.86-36.61h7.94a4.37,4.37,0,0,0,0-8.75H61l-5.51-40h9.56a4.37,4.37,0,1,0,0-8.75H54.24l-2.75-19.6,8.26-3.4c2.59-1.13,3.24-3.73,1.13-5.67l-12-12.64-0.81-5.83A9.83,9.83,0,0,0,49.21,101.12Zm3.08,97.52H24.91l5.51-40H46.78ZM31.56,149.72l2.27-17.17a3.24,3.24,0,0,0,1.94-3.4V117.81L37.23,107h2.59l1.46,10.85v11.34a3.42,3.42,0,0,0,1.94,3.4l2.27,17.17H31.56Z" transform="translate(0 -55.8)"/><path class="cls-1" d="M287,166.57l-49.25-55.4H142.85l-49.08,55.4a11.71,11.71,0,0,1-8.1,3.89H85V234a10.51,10.51,0,0,0,10.5,10.53H285.24A10.51,10.51,0,0,0,295.77,234h0V170.46A12.17,12.17,0,0,1,287,166.57Zm-123-35.48a5.22,5.22,0,0,1,5.18-5.18h42.12a5.22,5.22,0,0,1,5.18,5.18v10.53a5.22,5.22,0,0,1-5.18,5.18H169.25a5.22,5.22,0,0,1-5.18-5.18V131.09ZM230,237.52H150.95V190.06a5.36,5.36,0,0,1,5.18-5.35h68.52a5.39,5.39,0,0,1,5.35,5.35v47.46h0Z" transform="translate(0 -55.8)"/><path class="cls-1" d="M301.6,165.44a8.76,8.76,0,0,1-6,2.11,8.39,8.39,0,0,1-6.48-2.92l-50.06-56.37H141.55L91.49,164.63a8.83,8.83,0,0,1-6,2.92H85.18a9.2,9.2,0,0,1-6-2.27A8.88,8.88,0,0,1,78.37,153L131,93.67a8.49,8.49,0,0,1,6.64-2.92H243a9.33,9.33,0,0,1,6.64,2.92L302.25,153a8.63,8.63,0,0,1-.36,12.2Z" transform="translate(0 -55.8)"/></svg>