<?xml version="1.0" encoding="UTF-8"?>
<svg xmlns="http://www.w3.org/2000/svg" xmlns:xlink="http://www.w3.org/1999/xlink" width="975pt" height="975pt" viewBox="0 0 975 975" version="1.1">
<defs>
<clipPath id="clip1">
  <path d="M 0 0 L 975 0 L 975 975 L 0 975 Z M 0 0 "/>
</clipPath>
</defs>
<g id="surface0">
<g clip-path="url(#clip1)" clip-rule="nonzero">
<path style=" stroke:none;fill-rule:evenodd;fill:rgb(100%,100%,100%);fill-opacity:1;" d="M 0 0 L 975 0 L 975 975 L 0 975 Z M 0 0 "/>
<path style=" stroke:none;fill-rule:nonzero;fill:rgb(0%,0%,0%);fill-opacity:1;" d="M 871.007813 617.972656 L 676.851563 617.972656 C 676.851563 617.972656 656.417969 580.640625 692.457031 544.601563 C 728.492188 508.566406 800.484375 498.304688 814.796875 484.253906 C 829.105469 470.199219 807.207031 449.765625 807.207031 449.765625 L 831.261719 449.765625 C 831.261719 449.765625 873.507813 471.234375 861.351563 494.167969 C 846.523438 522.273438 827.8125 526.582031 827.8125 563.140625 C 827.8125 589.003906 871.007813 617.972656 871.007813 617.972656 Z M 871.007813 617.972656 "/>
<path style=" stroke:none;fill-rule:nonzero;fill:rgb(0%,0%,0%);fill-opacity:1;" d="M 750.046875 273.113281 L 709.613281 471.925781 L 741.167969 471.925781 L 741.167969 494.597656 L 758.925781 494.597656 L 758.925781 471.925781 L 790.484375 471.925781 Z M 750.046875 273.113281 "/>
<path style=" stroke:none;fill-rule:nonzero;fill:rgb(0%,0%,0%);fill-opacity:1;" d="M 685.386719 293.21875 L 644.953125 492.03125 L 676.507813 492.03125 L 676.507813 514.617188 L 694.265625 514.617188 L 694.265625 492.03125 L 725.820313 492.03125 Z M 685.386719 293.21875 "/>
<path style=" stroke:none;fill-rule:nonzero;fill:rgb(0%,0%,0%);fill-opacity:1;" d="M 695.625 828.371094 L 284.804688 828.371094 L 380.269531 793.957031 L 600.171875 793.957031 Z M 695.625 828.371094 "/>
<path style=" stroke:none;fill-rule:nonzero;fill:rgb(0%,0%,0%);fill-opacity:1;" d="M 269.082031 381.601563 L 222.191406 423.441406 L 275.792969 480.832031 L 275.792969 495.4375 L 259.371094 495.4375 L 258.742188 570.90625 L 350.472656 570.90625 L 350.472656 483.914063 L 369.417969 483.914063 Z M 269.082031 381.601563 "/>
<path style=" stroke:none;fill-rule:nonzero;fill:rgb(0%,0%,0%);fill-opacity:1;" d="M 154.140625 381.207031 L 53.648438 483.914063 L 72.4375 483.914063 L 72.4375 570.90625 L 235.847656 570.90625 L 235.847656 483.914063 L 253.53125 483.914063 Z M 154.140625 381.207031 "/>
<path style=" stroke:none;fill-rule:nonzero;fill:rgb(0%,0%,0%);fill-opacity:1;" d="M 489.628906 189.378906 C 489.628906 189.378906 525.851563 76.484375 479.4375 60.417969 C 454.636719 61.496094 421.128906 121.21875 489.628906 189.378906 Z M 489.628906 189.378906 "/>
<path style=" stroke:none;fill-rule:nonzero;fill:rgb(0%,0%,0%);fill-opacity:1;" d="M 493.296875 195.917969 C 493.296875 195.917969 549.445313 97.011719 609.0625 118.367188 C 618.769531 148.644531 594.589844 191.417969 493.296875 195.917969 Z M 493.296875 195.917969 "/>
<path style=" stroke:none;fill-rule:evenodd;fill:rgb(0%,0%,0%);fill-opacity:1;" d="M 168.070313 823.296875 L 776.179688 147.925781 L 784.113281 155.074219 L 176.007813 830.445313 Z M 168.070313 823.296875 "/>
<path style=" stroke:none;fill-rule:evenodd;fill:rgb(0%,0%,0%);fill-opacity:1;" d="M 126.652344 168.996094 L 133.828125 161.027344 L 807.96875 768.027344 L 800.792969 775.996094 Z M 126.652344 168.996094 "/>
<path style=" stroke:none;fill-rule:nonzero;fill:rgb(0%,0%,0%);fill-opacity:1;" d="M 465.777344 915.371094 C 514.390625 917.441406 560.503906 912.535156 603.800781 901.21875 C 606.96875 899.800781 609.152344 898.558594 613.671875 897.6875 C 617.226563 897.261719 620.59375 896.367188 624.023438 895.53125 C 630.269531 893.542969 636.511719 891.773438 642.558594 889.417969 L 648.976563 886.773438 L 649.101563 886.71875 C 652.425781 885.128906 651.285156 885.09375 649.027344 885.496094 C 646.539063 886.109375 644.246094 886.597656 642.269531 886.9375 C 643.523438 886.71875 646.796875 885.902344 649.027344 885.496094 C 651.964844 884.714844 655.410156 883.9375 659.109375 882.429688 C 664.523438 879.90625 670.132813 877.375 676.15625 874.964844 C 669.675781 878.117188 664.003906 880.558594 659.109375 882.429688 C 655.714844 884.117188 652.308594 885.328125 648.980469 886.777344 L 646.046875 888.148438 C 660.125 883.140625 673.839844 877.390625 687.238281 870.835938 C 690.25 869.273438 693.164063 867.773438 695.492188 866.527344 C 704.707031 861.003906 714.03125 855.726563 720.34375 853.261719 L 727.167969 849.128906 L 725.742188 849.71875 C 726.78125 849.175781 727.648438 848.746094 728.382813 848.394531 C 738.054688 842.703125 747.242188 836.136719 756.496094 829.652344 C 761.949219 824.691406 767.621094 819.804688 773.101563 814.660156 C 773.101563 814.660156 777.570313 812.082031 779.796875 810.804688 C 781.648438 808.277344 784.714844 805.128906 788.359375 801.601563 C 783.269531 804.9375 778.390625 807.792969 774.148438 810.671875 C 767.664063 814.613281 762.757813 823.300781 754.101563 826.71875 C 762.757813 823.296875 767.664063 814.613281 774.148438 810.671875 C 778.390625 807.792969 783.269531 804.933594 788.359375 801.601563 C 795.777344 793.929688 806.203125 784.980469 814.667969 777.746094 C 806.210938 788.691406 796.621094 795.664063 788.359375 801.601563 C 784.714844 805.128906 781.648438 808.277344 779.796875 810.804688 C 777.570313 812.082031 773.101563 814.660156 773.101563 814.660156 C 767.621094 819.804688 761.949219 824.691406 756.496094 829.652344 C 774.429688 816.777344 791.351563 802.105469 807.753906 786.347656 C 912.316406 683.429688 958.929688 538.242188 932.277344 388.140625 C 917.289063 306.816406 880.652344 232.890625 829.335938 173.164063 C 725.742188 53.835938 571.367188 1.957031 411.871094 20.894531 C 381.0625 24.441406 337.589844 35.492188 297.386719 53.855469 C 257.023438 71.863281 220.585938 96.769531 197.511719 115.6875 C 140.75 171.976563 181.035156 153.324219 183.378906 151.226563 C 225.339844 128.679688 249.484375 96.757813 340.386719 67.46875 C 278.351563 87.933594 382.6875 39.472656 445.695313 44.207031 C 489.796875 45.355469 542.460938 47.757813 596.089844 61.15625 C 649.574219 74.105469 703.3125 98.4375 745.351563 131.582031 C 766.351563 148.03125 788.046875 166.4375 809.203125 190.351563 C 915.855469 314.527344 951.234375 489.484375 879.421875 648.757813 C 860.3125 690.390625 839.4375 725.535156 814.628906 755.828125 C 796.140625 777.679688 772.410156 797.324219 754.066406 811.386719 C 725.207031 833.671875 698.375 850.417969 671.425781 864.285156 C 701.761719 849.273438 722.828125 836.164063 752.53125 813.269531 C 772.289063 797.816406 741.214844 827.0625 727.25 836.605469 C 721.410156 840.816406 710.414063 844.441406 704.429688 848.203125 C 690.882813 855.824219 678.75 863.503906 663.628906 870.816406 C 657.316406 874.222656 656.976563 871.292969 653.835938 872.992188 C 632.933594 881.808594 617.214844 890.875 602.71875 893.664063 C 591.851563 896.378906 581.875 897.695313 572.269531 899.449219 C 566.121094 900.324219 560.050781 901.207031 553.691406 902.386719 C 549.734375 903.320313 545.589844 903.886719 541.414063 904.671875 C 544.800781 905.132813 546.140625 906.039063 547.425781 906.953125 C 541.351563 907.429688 532.792969 908.109375 526.636719 908.289063 C 532.792969 908.113281 541.351563 907.429688 547.425781 906.953125 C 546.136719 906.035156 544.800781 905.132813 541.414063 904.671875 C 511.683594 909.953125 476.4375 912.269531 443.777344 910.011719 L 444.222656 910.320313 C 463.277344 911.644531 481.890625 913.03125 501.792969 913.925781 C 493.160156 913.511719 494.265625 912.707031 504.050781 912.304688 C 506.539063 912.679688 509.132813 913.210938 511.648438 913.445313 C 494.59375 914.984375 477.347656 915.8125 461.304688 912.707031 C 461.304688 912.707031 453.957031 912.820313 450.289063 912.875 C 444.910156 912.125 445.289063 911.195313 444.222656 910.320313 L 432.945313 909.203125 C 440.65625 911.910156 465.753906 915.386719 465.777344 915.371094 Z M 465.777344 915.371094 "/>
<path style=" stroke:none;fill-rule:nonzero;fill:rgb(0%,0%,0%);fill-opacity:1;" d="M 165.226563 126.246094 C 127.355469 161.035156 96.597656 199.207031 72.777344 240.109375 C 71.476563 243.539063 70.78125 246.109375 68.058594 250.140625 C 65.730469 253.121094 63.882813 256.3125 61.953125 259.515625 C 58.785156 265.679688 55.453125 271.679688 52.710938 277.972656 L 49.902344 284.765625 L 49.855469 284.902344 C 48.566406 288.582031 49.445313 287.757813 50.828125 285.769531 C 52.226563 283.445313 53.574219 281.363281 54.792969 279.628906 C 54.015625 280.726563 52.191406 283.796875 50.828125 285.769531 C 49.226563 288.550781 47.238281 291.714844 45.605469 295.617188 C 43.464844 301.5625 41.175781 307.664063 38.496094 313.992188 C 40.964844 306.765625 43.355469 300.6875 45.605469 295.617188 C 46.878906 291.808594 48.507813 288.34375 49.902344 284.765625 L 51.0625 281.535156 C 44.316406 295.839844 38.398438 310.429688 33.324219 325.386719 C 32.25 328.8125 31.203125 332.121094 30.402344 334.804688 C 27.679688 345.851563 24.6875 356.808594 21.824219 363.382813 L 19.835938 371.597656 L 20.457031 370.085938 C 20.09375 371.273438 19.765625 372.246094 19.488281 373.058594 C 16.546875 384.578125 14.632813 396.394531 12.59375 408.199219 C 12.25 416.019531 11.695313 423.941406 11.480469 431.914063 C 11.480469 431.914063 10.078125 437.199219 9.378906 439.828125 C 9.898438 443.109375 9.980469 447.785156 9.910156 453.15625 C 11.203125 446.847656 12.699219 441.042969 13.699219 435.710938 C 15.574219 427.882813 12.699219 417.675781 16.59375 408.621094 C 12.699219 417.675781 15.574219 427.886719 13.699219 435.710938 C 12.699219 441.042969 11.203125 446.847656 9.910156 453.15625 C 10.144531 464.492188 9.097656 479.03125 8.21875 490.804688 C 6.296875 476.234375 8.210938 463.8125 9.910156 453.15625 C 9.980469 447.785156 9.902344 443.109375 9.378906 439.828125 C 10.078125 437.199219 11.480469 431.914063 11.480469 431.914063 C 11.695313 423.941406 12.25 416.019531 12.59375 408.199219 C 8.882813 431.3125 7.296875 455.015625 6.90625 479.15625 C 6.285156 634.890625 80.773438 779.148438 213.6875 872.332031 C 286.109375 922.402344 369.136719 950.71875 452.433594 957.359375 C 619.660156 969.828125 774.039063 893.5 878.925781 759.980469 C 899.269531 734.269531 923.421875 693.445313 939.625 649.546875 C 956.226563 605.796875 964.691406 559.785156 967.679688 528.28125 C 967.707031 443.421875 951.65625 487.601563 951.484375 490.929688 C 937.117188 539.292969 943.113281 581.402344 897.257813 671.441406 C 928.195313 609.640625 886.738281 724.164063 836.109375 767.703125 C 802.296875 799.816406 761.148438 837.375 711.003906 867.375 C 661.296875 897.609375 602.835938 919.453125 546.484375 925.90625 C 518.410156 929.214844 488.347656 931.5625 454.535156 929.359375 C 281.375 915.527344 123.230469 810.144531 56.964844 636.429688 C 39.890625 590.773438 29.027344 548.679688 24.757813 507.308594 C 22.113281 477.015625 25.050781 444.46875 28.160156 420.152344 C 32.945313 381.785156 40.375 349.101563 50.070313 318.507813 C 38.710938 352.496094 32.839844 378.125 27.894531 417.589844 C 24.769531 444.015625 25.964844 398.738281 29.207031 381.105469 C 30.398438 373.5625 35.882813 362.609375 37.523438 355.304688 C 41.902344 339.429688 45.1875 324.574219 50.976563 307.761719 C 53.132813 300.46875 55.582031 302.421875 56.65625 298.796875 C 65.632813 276.523438 70.546875 257.941406 79.277344 245 C 85.347656 234.832031 91.8125 226.378906 97.667969 217.875 C 101.597656 212.621094 105.46875 207.421875 109.332031 201.773438 C 111.585938 198.109375 114.253906 194.582031 116.789063 190.871094 C 113.902344 193.050781 112.226563 193.375 110.574219 193.644531 C 114.757813 188.746094 120.636719 181.835938 125.097656 177.097656 C 120.636719 181.835938 114.757813 188.746094 110.574219 193.644531 C 112.226563 193.375 113.90625 193.054688 116.789063 190.871094 C 135.015625 164.65625 159.601563 136.5625 185.695313 113.847656 L 185.132813 113.945313 C 169.898438 127.195313 154.953125 140.066406 139.410156 154.269531 C 146.171875 148.128906 145.957031 149.566406 138.945313 157.183594 C 136.808594 158.761719 134.46875 160.304688 132.414063 162 C 143.992188 148.089844 156.25 134.574219 170.574219 124.917969 C 170.574219 124.917969 175.980469 119.34375 178.675781 116.554688 C 183.257813 113.097656 183.675781 114.082031 185.132813 113.941406 L 194.394531 106.355469 C 186.59375 110.070313 165.230469 126.214844 165.226563 126.246094 Z M 165.226563 126.246094 "/>
<path style=" stroke:none;fill-rule:evenodd;fill:rgb(0%,0%,0%);fill-opacity:1;" d="M 380.753906 630.371094 L 599.792969 630.371094 L 599.792969 776.523438 L 380.753906 776.523438 Z M 380.753906 630.371094 "/>
<path style=" stroke:none;fill-rule:evenodd;fill:rgb(0%,0%,0%);fill-opacity:1;" d="M 499.84375 319.226563 C 499.84375 348.441406 475.992188 372.125 446.570313 372.125 C 417.152344 372.125 393.300781 348.441406 393.300781 319.226563 C 393.300781 290.011719 417.152344 266.324219 446.570313 266.324219 C 475.992188 266.324219 499.84375 290.011719 499.84375 319.226563 Z M 499.84375 319.226563 "/>
<path style=" stroke:none;fill-rule:evenodd;fill:rgb(0%,0%,0%);fill-opacity:1;" d="M 600.371094 257.210938 C 600.371094 289.132813 574.273438 315.011719 542.078125 315.011719 C 509.882813 315.011719 483.785156 289.132813 483.785156 257.210938 C 483.785156 225.289063 509.882813 199.414063 542.078125 199.414063 C 574.273438 199.414063 600.371094 225.289063 600.371094 257.210938 Z M 600.371094 257.210938 "/>
<path style=" stroke:none;fill-rule:evenodd;fill:rgb(0%,0%,0%);fill-opacity:1;" d="M 477.007813 216.851563 C 477.007813 246.070313 452.480469 269.753906 422.230469 269.753906 C 391.976563 269.753906 367.453125 246.070313 367.453125 216.851563 C 367.453125 187.636719 391.976563 163.953125 422.230469 163.953125 C 452.480469 163.953125 477.007813 187.636719 477.007813 216.851563 Z M 477.007813 216.851563 "/>
<path style=" stroke:none;fill-rule:nonzero;fill:rgb(100%,100%,100%);fill-opacity:1;" d="M 448.679688 351.007813 C 441.839844 351.839844 434.757813 350.863281 428.566406 348.179688 C 428.242188 348.328125 427.917969 348.472656 427.597656 348.617188 C 427.554688 348.652344 427.515625 348.6875 427.472656 348.726563 C 425.289063 349.773438 423.347656 351.007813 421.648438 352.675781 C 421.402344 352.964844 421.121094 353.183594 420.878906 353.472656 C 420.835938 353.507813 420.835938 353.578125 420.796875 353.617188 C 420.714844 353.6875 420.636719 353.761719 420.554688 353.835938 C 420.3125 354.125 420.109375 354.414063 419.867188 354.703125 C 419.785156 354.777344 419.746094 354.886719 419.703125 354.957031 C 419.664063 354.996094 419.625 355.027344 419.582031 355.066406 C 419.460938 355.25 419.382813 355.429688 419.257813 355.609375 C 419.21875 355.648438 419.179688 355.683594 419.136719 355.71875 C 418.855469 356.1875 418.570313 356.625 418.371094 357.097656 C 417.601563 355.464844 417.074219 353.835938 416.628906 352.023438 C 416.019531 349.339844 415.78125 346.839844 415.941406 344.199219 C 415.984375 343.726563 416.019531 343.21875 416.0625 342.746094 C 416.183594 341.878906 416.265625 341.007813 416.507813 340.136719 C 416.550781 339.957031 416.507813 339.742188 416.589844 339.558594 C 416.628906 339.488281 416.671875 339.414063 416.671875 339.378906 C 415.171875 337.890625 413.632813 336.660156 411.691406 335.609375 C 409.179688 334.269531 406.59375 333.433594 403.800781 333.070313 C 406.148438 331.625 408.617188 330.320313 411.328125 329.375 C 411.410156 329.339844 411.449219 329.304688 411.53125 329.269531 C 415.050781 328.035156 418.691406 327.308594 422.417969 327.023438 C 423.226563 325.609375 423.710938 324.160156 424.15625 322.601563 C 424.15625 322.527344 424.15625 322.492188 424.15625 322.421875 C 424.640625 320.316406 424.683594 318.363281 424.398438 316.296875 C 424.359375 316.113281 424.320313 315.972656 424.277344 315.789063 C 424.15625 315.136719 424.078125 314.484375 423.832031 313.867188 C 425.332031 314.703125 426.664063 315.75 428.042969 316.804688 C 428.730469 317.347656 429.339844 317.890625 429.984375 318.503906 C 431.117188 319.59375 432.089844 320.609375 433.101563 321.839844 C 433.179688 321.949219 433.261719 322.09375 433.34375 322.203125 C 433.382813 322.273438 433.464844 322.273438 433.503906 322.347656 C 433.992188 323.035156 434.433594 323.578125 434.921875 324.265625 C 435.246094 324.738281 435.527344 325.210938 435.851563 325.679688 C 435.933594 325.863281 436.054688 326.042969 436.136719 326.222656 C 436.421875 326.695313 436.699219 327.164063 436.984375 327.636719 C 437.996094 327.710938 439.046875 327.710938 440.0625 327.636719 C 440.222656 327.601563 440.425781 327.601563 440.585938 327.5625 C 440.707031 327.5625 440.789063 327.5625 440.910156 327.5625 C 441.03125 327.5625 441.113281 327.492188 441.234375 327.492188 C 444.753906 327.132813 447.992188 325.789063 450.785156 323.941406 C 450.378906 325.824219 449.734375 327.675781 448.964844 329.484375 C 448.925781 329.554688 448.882813 329.59375 448.84375 329.667969 C 447.101563 333.617188 444.515625 337.238281 441.273438 340.320313 C 441.519531 341.226563 441.800781 342.132813 442.164063 343 C 442.207031 343.109375 442.207031 343.183594 442.246094 343.292969 C 442.730469 344.414063 443.257813 345.429688 444.027344 346.476563 C 444.191406 346.625 444.269531 346.804688 444.394531 346.988281 C 444.429688 347.023438 444.472656 347.058594 444.515625 347.097656 C 445.160156 348.003906 445.929688 348.726563 446.738281 349.523438 C 446.78125 349.558594 446.859375 349.558594 446.902344 349.59375 C 447.46875 350.140625 448.035156 350.574219 448.679688 351.007813 Z M 448.679688 351.007813 L 448.679688 351.007813 Z M 448.679688 351.007813 "/>
<path style=" stroke:none;fill-rule:nonzero;fill:rgb(100%,100%,100%);fill-opacity:1;" d="M 581.707031 294.3125 C 574.867188 295.144531 567.785156 294.164063 561.59375 291.484375 C 561.269531 291.628906 560.945313 291.773438 560.625 291.917969 C 560.582031 291.953125 560.542969 291.992188 560.5 292.027344 C 558.316406 293.078125 556.375 294.3125 554.675781 295.976563 C 554.429688 296.265625 554.148438 296.484375 553.90625 296.773438 C 553.863281 296.8125 553.863281 296.882813 553.824219 296.917969 C 553.742188 296.988281 553.664063 297.0625 553.582031 297.136719 C 553.339844 297.425781 553.136719 297.714844 552.894531 298.007813 C 552.8125 298.078125 552.773438 298.1875 552.730469 298.261719 C 552.691406 298.296875 552.652344 298.332031 552.609375 298.367188 C 552.488281 298.550781 552.410156 298.730469 552.285156 298.914063 C 552.246094 298.949219 552.207031 298.984375 552.164063 299.023438 C 551.882813 299.492188 551.597656 299.925781 551.398438 300.398438 C 550.628906 298.765625 550.101563 297.136719 549.65625 295.324219 C 549.046875 292.644531 548.808594 290.140625 548.96875 287.5 C 549.011719 287.027344 549.046875 286.519531 549.089844 286.050781 C 549.210938 285.179688 549.292969 284.3125 549.535156 283.4375 C 549.578125 283.257813 549.535156 283.042969 549.617188 282.859375 C 549.65625 282.789063 549.699219 282.714844 549.699219 282.679688 C 548.199219 281.195313 546.660156 279.960938 544.71875 278.910156 C 542.207031 277.570313 539.621094 276.734375 536.828125 276.375 C 539.175781 274.925781 541.644531 273.621094 544.355469 272.679688 C 544.4375 272.640625 544.476563 272.605469 544.558594 272.570313 C 548.078125 271.335938 551.71875 270.613281 555.445313 270.324219 C 556.253906 268.910156 556.738281 267.460938 557.183594 265.902344 C 557.183594 265.828125 557.183594 265.792969 557.183594 265.722656 C 557.667969 263.617188 557.710938 261.664063 557.425781 259.597656 C 557.386719 259.417969 557.347656 259.273438 557.304688 259.089844 C 557.183594 258.4375 557.105469 257.785156 556.859375 257.171875 C 558.359375 258.003906 559.691406 259.054688 561.070313 260.105469 C 561.757813 260.648438 562.367188 261.191406 563.011719 261.808594 C 564.144531 262.894531 565.117188 263.910156 566.128906 265.140625 C 566.207031 265.25 566.289063 265.398438 566.371094 265.503906 C 566.410156 265.578125 566.492188 265.578125 566.53125 265.652344 C 567.019531 266.335938 567.460938 266.882813 567.949219 267.570313 C 568.273438 268.042969 568.554688 268.511719 568.878906 268.984375 C 568.960938 269.164063 569.082031 269.34375 569.164063 269.527344 C 569.449219 269.996094 569.726563 270.464844 570.011719 270.941406 C 571.023438 271.011719 572.074219 271.011719 573.089844 270.941406 C 573.25 270.902344 573.453125 270.902344 573.613281 270.867188 C 573.734375 270.867188 573.816406 270.867188 573.9375 270.867188 C 574.058594 270.867188 574.140625 270.796875 574.261719 270.796875 C 577.78125 270.433594 581.019531 269.089844 583.8125 267.242188 C 583.40625 269.128906 582.761719 270.976563 581.992188 272.785156 C 581.953125 272.859375 581.910156 272.894531 581.871094 272.96875 C 580.128906 276.917969 577.542969 280.542969 574.300781 283.621094 C 574.546875 284.527344 574.828125 285.433594 575.191406 286.304688 C 575.234375 286.410156 575.234375 286.484375 575.273438 286.59375 C 575.757813 287.714844 576.285156 288.730469 577.054688 289.78125 C 577.21875 289.925781 577.296875 290.105469 577.421875 290.289063 C 577.457031 290.324219 577.5 290.363281 577.542969 290.398438 C 578.1875 291.304688 578.957031 292.027344 579.765625 292.824219 C 579.808594 292.859375 579.886719 292.859375 579.929688 292.898438 C 580.496094 293.441406 581.0625 293.875 581.707031 294.3125 Z M 581.707031 294.3125 L 581.707031 294.3125 Z M 581.707031 294.3125 "/>
<path style=" stroke:none;fill-rule:nonzero;fill:rgb(100%,100%,100%);fill-opacity:1;" d="M 431.988281 249.238281 C 425.148438 250.074219 418.066406 249.09375 411.875 246.414063 C 411.550781 246.558594 411.226563 246.703125 410.90625 246.847656 C 410.863281 246.882813 410.824219 246.917969 410.78125 246.957031 C 408.597656 248.003906 406.65625 249.238281 404.957031 250.90625 C 404.710938 251.195313 404.429688 251.414063 404.1875 251.703125 C 404.144531 251.738281 404.144531 251.8125 404.105469 251.847656 C 404.023438 251.917969 403.945313 251.992188 403.863281 252.066406 C 403.621094 252.355469 403.417969 252.644531 403.175781 252.9375 C 403.09375 253.007813 403.054688 253.117188 403.011719 253.1875 C 402.972656 253.226563 402.933594 253.261719 402.890625 253.296875 C 402.769531 253.480469 402.691406 253.660156 402.566406 253.839844 C 402.527344 253.878906 402.488281 253.914063 402.445313 253.949219 C 402.164063 254.421875 401.878906 254.855469 401.679688 255.328125 C 400.910156 253.695313 400.382813 252.066406 399.9375 250.253906 C 399.328125 247.574219 399.089844 245.070313 399.25 242.429688 C 399.292969 241.957031 399.328125 241.449219 399.371094 240.976563 C 399.492188 240.109375 399.574219 239.238281 399.816406 238.367188 C 399.859375 238.1875 399.816406 237.972656 399.894531 237.789063 C 399.9375 237.71875 399.980469 237.644531 399.980469 237.609375 C 398.480469 236.121094 396.941406 234.890625 395 233.839844 C 392.488281 232.5 389.902344 231.664063 387.109375 231.304688 C 389.457031 229.855469 391.925781 228.550781 394.636719 227.609375 C 394.71875 227.570313 394.757813 227.535156 394.839844 227.5 C 398.359375 226.265625 402 225.539063 405.722656 225.253906 C 406.535156 223.839844 407.019531 222.390625 407.464844 220.832031 C 407.464844 220.757813 407.464844 220.722656 407.464844 220.652344 C 407.949219 218.546875 407.988281 216.59375 407.707031 214.527344 C 407.667969 214.34375 407.628906 214.203125 407.585938 214.019531 C 407.464844 213.367188 407.386719 212.714844 407.140625 212.097656 C 408.640625 212.933594 409.972656 213.980469 411.351563 215.035156 C 412.039063 215.578125 412.648438 216.121094 413.292969 216.734375 C 414.425781 217.824219 415.398438 218.839844 416.410156 220.070313 C 416.488281 220.179688 416.570313 220.324219 416.648438 220.433594 C 416.691406 220.503906 416.773438 220.503906 416.8125 220.578125 C 417.300781 221.265625 417.742188 221.8125 418.230469 222.5 C 418.554688 222.972656 418.835938 223.441406 419.160156 223.910156 C 419.242188 224.09375 419.363281 224.273438 419.445313 224.457031 C 419.730469 224.925781 420.007813 225.394531 420.292969 225.871094 C 421.304688 225.941406 422.355469 225.941406 423.371094 225.871094 C 423.53125 225.832031 423.734375 225.832031 423.894531 225.796875 C 424.015625 225.796875 424.097656 225.796875 424.21875 225.796875 C 424.339844 225.796875 424.417969 225.722656 424.542969 225.722656 C 428.0625 225.363281 431.300781 224.019531 434.09375 222.171875 C 433.6875 224.058594 433.042969 225.90625 432.273438 227.714844 C 432.234375 227.785156 432.191406 227.824219 432.152344 227.898438 C 430.410156 231.847656 427.824219 235.46875 424.582031 238.550781 C 424.828125 239.457031 425.109375 240.363281 425.472656 241.230469 C 425.515625 241.339844 425.515625 241.414063 425.554688 241.523438 C 426.039063 242.644531 426.566406 243.660156 427.335938 244.707031 C 427.496094 244.855469 427.578125 245.035156 427.703125 245.21875 C 427.738281 245.253906 427.78125 245.289063 427.824219 245.328125 C 428.46875 246.234375 429.238281 246.957031 430.046875 247.753906 C 430.089844 247.789063 430.167969 247.789063 430.210938 247.828125 C 430.777344 248.371094 431.34375 248.804688 431.988281 249.238281 Z M 431.988281 249.238281 L 431.988281 249.238281 Z M 431.988281 249.238281 "/>
</g>
</g>
</svg>
