<?xml version="1.0" encoding="utf-8"?>
<!-- Generator: Adobe Illustrator 18.1.1, SVG Export Plug-In . SVG Version: 6.00 Build 0)  -->
<!DOCTYPE svg PUBLIC "-//W3C//DTD SVG 1.1//EN" "http://www.w3.org/Graphics/SVG/1.1/DTD/svg11.dtd">
<svg version="1.1" id="Layer_1" xmlns="http://www.w3.org/2000/svg" xmlns:xlink="http://www.w3.org/1999/xlink" x="0px" y="0px"
	 viewBox="0 0 1000 1000" enable-background="new 0 0 1000 1000" xml:space="preserve">
<g>
	<polygon opacity="0.87" fill="#FFFFFF" enable-background="new    " points="546,827.1 686.6,757.7 686.6,609 543.6,533.9 
		407.9,609.9 407.9,757.7 	"/>
	<path opacity="0.87" fill="#FFFFFF" enable-background="new    " d="M526.7,585.6V197.1c0-9.7,33.1-10.5,33.1-0.8v388.5
		C559.8,594.5,526.7,595.3,526.7,585.6z"/>
	<path opacity="0.87" fill="#FFFFFF" enable-background="new    " d="M458.8,641.4c-3.2,5.7-10.5,7.3-16.2,4L218,512.9
		c-5.7-3.2-7.3-10.5-4-16.2l0,0c3.2-5.7,10.5-7.3,16.2-4l225.4,131.7C460.4,628.4,462,635.7,458.8,641.4L458.8,641.4z"/>
	<path opacity="0.87" fill="#FFFFFF" enable-background="new    " d="M637.3,732.6c3.2-5.7,10.5-8.1,16.2-4.8l230.2,122.8
		c5.7,3.2,8.1,10.5,4.8,16.2l0,0c-3.2,5.7-10.5,8.1-16.2,4.8L642.1,748.8C636.5,745.6,634.1,738.3,637.3,732.6L637.3,732.6z"/>
	<path opacity="0.87" fill="#FFFFFF" enable-background="new    " d="M446.7,735.1c4,5.7,2.4,13.7-3.2,17.8L211.7,912.8
		c-5.7,4-13.7,2.4-17.8-3.2l0,0c-4-5.7-2.4-13.7,3.2-17.8l231.8-159.9C434.6,727.8,442.6,729.4,446.7,735.1L446.7,735.1z"/>
	<polygon fill="#EF6324" points="844.1,916 915.2,882.9 916.8,808.6 845.7,769 777.1,806.1 775.4,880.5 	"/>
	<polygon fill="#00ABB0" points="159.1,1000 227,961.2 222.9,886.9 149.4,853 83.2,895 88,969.3 	"/>
	<polygon fill="#EF6324" points="163.2,538.8 236.7,512.9 245.6,438.6 179.3,392.6 106.6,422.5 98.5,496 	"/>
	<polygon fill="#00ABB0" points="542,264.1 668,201.9 668,67.9 539.6,0 417.6,68.7 417.6,201.9 	"/>
</g>
</svg>
