<svg id="Layer_1" data-name="Layer 1" xmlns="http://www.w3.org/2000/svg" viewBox="0 0 51.43 61.13"><defs><style>.cls-1{font-size:10.5px;font-family:Arial;font-weight:700;}</style></defs><title>thumb-up-outline</title><path d="M13.57,32V60H4.22V32h9.35M22.92,60a4.67,4.67,0,0,1-4.68-4.67V32a4.57,4.57,0,0,1,1.38-3.3L35,13.25l2.48,2.48a3.48,3.48,0,0,1,1,2.48l-0.07.72L36.22,29.61H51a4.67,4.67,0,0,1,4.68,4.68V39a4.62,4.62,0,0,1-.33,1.71L48.25,57.15A4.64,4.64,0,0,1,44,60h-21m0-4.67H44L51,39V34.29H30.44l2.64-12.44L22.92,32v23.3Z" transform="translate(-4.22 1.13)"/><text class="cls-1" transform="translate(4.39 9.01)">I<tspan x="2.92" y="0"> </tspan><tspan x="5.44" y="0">AGREE</tspan></text></svg>