<svg id="Layer_1" data-name="Layer 1" xmlns="http://www.w3.org/2000/svg" viewBox="0 0 60.68 61.13"><defs><style>.cls-1{font-size:10.5px;font-family:Arial;font-weight:700;}</style></defs><title>thumb-down-outline</title><path d="M46.29,41.3v-28h9.35V41.3H46.29m-9.35-28a4.67,4.67,0,0,1,4.67,4.68V41.3a4.57,4.57,0,0,1-1.38,3.3L24.86,60l-2.48-2.48a3.48,3.48,0,0,1-1-2.48l0.07-.72,2.22-10.68H8.89A4.67,4.67,0,0,1,4.22,39V34.29a4.62,4.62,0,0,1,.33-1.71L11.6,16.1a4.64,4.64,0,0,1,4.3-2.85h21m0,4.68H15.83L8.89,34.29V39H29.41L26.77,51.4,36.94,41.23V17.93Z" transform="translate(0.34 1.13)"/><text class="cls-1" transform="translate(0 9.01)">I DISAGREE</text></svg>