<svg id="Layer_1" data-name="Layer 1" xmlns="http://www.w3.org/2000/svg" viewBox="0 0 40 40"><title>environment</title><path d="M27.28,40H4.76s-2.37-4.33,1.81-8.51,12.53-5.37,14.19-7-0.88-4-.88-4h2.79s4.9,2.49,3.49,5.15c-1.72,3.26-3.89,3.76-3.89,8C22.27,36.64,27.28,40,27.28,40Z"/><path d="M33.2,40s-8.32-3.58-8.32-6.57c0-4.24,1.95-4.52,3.67-7.78,1.41-2.66-3.39-4.5-3.39-4.5s6.62,1.09,5.64,4.36-4,4.33-3,7.21S37.17,40,37.17,40h-4Z"/><polygon points="13.25 0 8.56 23.06 12.22 23.06 12.22 25.69 14.28 25.69 14.28 23.06 17.94 23.06 13.25 0"/><polygon points="5.75 2.67 1.06 25.73 4.72 25.73 4.72 28.35 6.78 28.35 6.78 25.73 10.44 25.73 5.75 2.67"/></svg>