<?xml version="1.0" encoding="utf-8"?>
<!-- Generator: Adobe Illustrator 19.2.1, SVG Export Plug-In . SVG Version: 6.00 Build 0)  -->
<svg version="1.1" id="Layer_1" xmlns="http://www.w3.org/2000/svg" xmlns:xlink="http://www.w3.org/1999/xlink" x="0px" y="0px"
	 viewBox="0 0 40 40" style="enable-background:new 0 0 40 40;" xml:space="preserve">
<title>food</title>
<path d="M36.5,25.3c-0.1-5.4-33-5.4-33,0c0.1,5.6,3.7,10.4,9.1,12.7v0.5c0,0.8,0.7,1.5,1.5,1.5h11.8c0.8,0,1.5-0.7,1.5-1.5V38
	C32.8,35.7,36.5,30.9,36.5,25.3z"/>
<g>
	<path d="M12.5,20.1c-0.3,0-0.7-0.1-1-0.4c-0.6-0.5-0.7-1.5-0.2-2.1c0.3-0.3,2.5-3.2,0.1-5.7C7.9,8.4,9.8,3.8,11.3,1.8
		c0.5-0.7,1.4-0.8,2.1-0.3C14,2,14.2,3,13.7,3.6c-0.1,0.1-2.7,3.6-0.1,6.2c3.6,3.6,1.6,7.9,0.1,9.7C13.3,19.9,12.9,20.1,12.5,20.1z"
		/>
</g>
<g>
	<path d="M20,19.5c-0.3,0-0.7-0.1-1-0.4c-0.6-0.5-0.7-1.5-0.2-2.1c0.3-0.3,2.5-3.2,0.1-5.7c-3.6-3.6-1.6-8.2-0.1-10.2
		c0.5-0.7,1.4-0.8,2.1-0.3c0.7,0.5,0.8,1.4,0.3,2.1c-0.1,0.1-2.7,3.6-0.1,6.2c3.6,3.6,1.6,7.9,0.1,9.7C20.8,19.3,20.4,19.5,20,19.5z
		"/>
</g>
<g>
	<path d="M27.6,20.1c-0.3,0-0.7-0.1-1-0.4c-0.6-0.5-0.7-1.5-0.2-2.1c0.3-0.3,2.5-3.2,0.1-5.7C23,8.4,24.9,3.8,26.4,1.8
		c0.5-0.7,1.4-0.8,2.1-0.3C29.2,2,29.3,3,28.8,3.6c-0.1,0.1-2.7,3.6-0.1,6.2c3.6,3.6,1.6,7.9,0.1,9.7C28.4,19.9,28,20.1,27.6,20.1z"
		/>
</g>
</svg>
