<svg id="Layer_1" data-name="Layer 1" xmlns="http://www.w3.org/2000/svg" viewBox="0 0 40 40"><defs><style>.cls-1{fill:none;stroke:#000;stroke-linecap:round;stroke-miterlimit:10;stroke-width:3px;}</style></defs><title>food</title><path d="M36.47,25.27c-0.07-5.37-33-5.37-32.95,0C3.6,30.84,7.26,35.65,12.61,38v0.5a1.51,1.51,0,0,0,1.5,1.5H25.88a1.51,1.51,0,0,0,1.5-1.5V38C32.8,35.67,36.55,30.85,36.47,25.27Z"/><path class="cls-1" d="M12.47,18.59s3.56-4.12,0-7.69,0-8.19,0-8.19"/><path class="cls-1" d="M20,18s3.56-4.12,0-7.69,0-8.19,0-8.19"/><path class="cls-1" d="M27.61,18.59s3.56-4.12,0-7.69,0-8.19,0-8.19"/></svg>